<svg width="128" height="128" viewBox="0 0 128 128" fill="none" xmlns="http://www.w3.org/2000/svg">
<path d="M63.9996 11.1667C91.9995 11.1667 114.87 32.995 116.785 60.5789C113.562 59.3415 110.212 58.5792 106.737 58.2107C106.515 56.5499 106.164 54.8551 105.766 53.2156L105.673 52.8337H86.6891L86.7565 53.3933C87.1186 56.3934 87.4743 59.31 87.4967 62.3162C83.6818 64.3545 80.2858 67.0861 77.4821 70.3689C77.6969 68.2502 77.8336 66.1265 77.8336 63.9998C77.8336 60.3402 77.4566 56.7409 76.9752 53.2644L76.9156 52.8337H51.0914L51.026 53.2576C50.4894 56.7452 50.1666 60.344 50.1666 63.9998C50.1666 67.6562 50.4897 71.2022 51.026 74.7419L51.0905 75.1667H73.9283C72.1261 78.1469 70.7588 81.382 69.902 84.8337H53.15L53.3326 85.4714C55.5364 93.1576 59.1355 100.3 63.5885 106.738L63.9987 107.331L64.4098 106.739C66.2029 104.164 67.797 101.474 69.2604 98.7039C70.1977 104.751 72.6738 110.462 76.4586 115.282C72.5033 116.272 68.3209 116.834 63.9996 116.834C34.9426 116.834 11.1666 93.0568 11.1666 63.9998C11.1668 34.9418 34.7837 11.1669 63.9996 11.1667ZM26.6608 85.5837C31.8639 94.5849 40.1407 101.406 49.9703 104.793L51.1832 105.211L50.5729 104.083C47.3947 98.2031 45.0073 91.8391 43.1481 85.199L43.0455 84.8337H26.2272L26.6608 85.5837ZM22.235 53.2117C21.3737 56.6567 20.8336 60.2716 20.8336 63.9998C20.8336 67.728 21.3737 71.3428 22.235 74.7878L22.3297 75.1667H41.3112L41.2428 74.6062C40.8172 71.0953 40.4996 67.5975 40.4996 63.9998C40.4997 60.402 40.8172 56.9042 41.2428 53.3933L41.3112 52.8337H22.3297L22.235 53.2117ZM49.9723 23.2068C40.1221 26.5592 31.8331 33.3899 26.6598 42.4177L26.2301 43.1667H43.0455L43.1481 42.8015C45.0073 36.1613 47.3946 29.7975 50.5729 23.9177L51.1793 22.7957L49.9723 23.2068ZM63.5885 21.2087C59.1349 27.6477 55.5361 34.8437 53.3326 42.5291L53.15 43.1667H74.8502L74.6676 42.5291C72.4641 34.8437 68.8644 27.6477 64.4108 21.2087L63.9996 20.614L63.5885 21.2087ZM77.3727 23.9158C80.5701 29.8858 83.0263 36.2245 84.6881 42.7898L84.7838 43.1667H101.773L101.339 42.4167C96.1595 33.4596 87.9036 26.6062 77.9752 23.2068L76.7721 22.7947L77.3727 23.9158Z" fill="#4217FF" stroke="#4217FF"/>
<path d="M111.334 88.5894L122.569 79.7095L122.619 79.6704L122.569 79.6313L111.334 70.811L111.253 70.7476V76.6997H97.2299L97.2152 76.7271L93.9857 83.1284L93.973 83.1538L93.9877 83.1772L97.1332 88.4868L97.1801 88.5659L97.2211 88.4839L100.1 82.6997H111.253V88.6528L111.334 88.5894ZM111.334 112.189L122.569 103.31L122.619 103.27L122.569 103.231L111.334 94.4106L111.253 94.3472V100.3H100.097L86.0687 76.7241L86.0541 76.6997H77.5502V82.6997H83.1888L97.2172 106.276L97.2318 106.3H111.253V112.253L111.334 112.189ZM86.057 106.3L86.0707 106.272L89.3002 99.8706L89.3129 99.8462L89.2992 99.8228L86.1527 94.5132L86.1058 94.4341L86.0658 94.5161L83.1859 100.3H77.5502V106.3H86.057Z" fill="#4217FF" stroke="#4217FF" stroke-width="0.1"/>
</svg>
